<svg xmlns="http://www.w3.org/2000/svg" width="41" height="41" viewBox="0 0 41 41">
    <path fill="#2F2D51" d="M34.996 6.004C31.124 2.132 25.976 0 20.5 0 15.024 0 9.876 2.132 6.004 6.004 2.132 9.876 0 15.024 0 20.5c0 5.476 2.132 10.624 6.004 14.496C9.876 38.868 15.024 41 20.5 41c5.476 0 10.624-2.132 14.496-6.004C38.868 31.124 41 25.976 41 20.5c0-5.476-2.132-10.624-6.004-14.496zM21.7 7.281l5.137-3.732c3.098 1.162 5.795 3.15 7.822 5.694l-1.959 6.03-5.818 1.89L21.7 13.4V7.28zm-7.539-3.732L19.3 7.28v6.118l-5.182 3.764-5.818-1.89-1.96-6.03C8.368 6.7 11.065 4.711 14.163 3.55zm-8.746 26.94c-1.767-2.66-2.85-5.81-2.995-9.2l5.135-3.732 5.819 1.89 1.98 6.092-3.597 4.95H5.416zm19.92 7.452c-1.54.427-3.162.657-4.836.657-1.674 0-3.296-.23-4.836-.657l-1.962-6.04 3.596-4.95h6.404l3.596 4.95-1.962 6.04zm3.906-7.452l-3.596-4.95 1.98-6.091 5.818-1.89 5.135 3.73c-.146 3.39-1.228 6.541-2.995 9.2h-6.342z"/>
</svg>
