<svg xmlns="http://www.w3.org/2000/svg" width="31" height="28" viewBox="0 0 31 25">
    <path fill="#2F2D51" d="M11.341 24.8c-1.314 0-2.667-.106-4.029-.319-2.397-.375-4.824-1.625-5.51-2L0 21.502l1.95-.64c2.132-.699 3.428-1.132 5.034-1.81-1.608-.777-2.846-2.172-3.443-3.976l-.453-1.373.372.057c-.353-.355-.632-.715-.848-1.042-.767-1.162-1.174-2.583-1.088-3.8l.086-1.199.72.278c-.304-.571-.523-1.181-.652-1.821-.315-1.56-.052-3.218.74-4.667L3.045.361l.839 1.004c2.651 3.175 6.01 5.058 9.996 5.61-.163-1.119-.04-2.199.363-3.166.47-1.127 1.307-2.083 2.418-2.764C17.895.29 19.392-.077 20.876.014c1.574.096 3.003.684 4.138 1.7.555-.143.963-.296 1.515-.503.332-.125.709-.266 1.18-.428l1.737-.596-1.133 3.224c.075-.007.152-.012.232-.015l1.855-.084-1.096 1.493c-.063.086-.079.11-.101.143-.089.133-.199.298-1.703 2.3-.377.502-.565 1.155-.53 1.84.134 2.602-.187 4.956-.952 6.997-.724 1.931-1.847 3.588-3.335 4.924-1.842 1.654-4.19 2.786-6.981 3.365-1.37.284-2.84.426-4.36.426z"/>
</svg>
