<svg xmlns="http://www.w3.org/2000/svg" width="35" height="35" viewBox="0 0 25 25">
    <path fill="#2F2D51" d="M12.4 0C5.59 0 0 5.59 0 12.4c0 2.248.606 4.436 1.755 6.35L0 24.8l6.05-1.755c1.914 1.149 4.102 1.755 6.35 1.755 6.81 0 12.4-5.59 12.4-12.4C24.8 5.59 19.21 0 12.4 0zm7.753 17.64l-.577.576c-.816.817-2.694.752-3.9.519-4.01-.775-8.686-5.307-9.588-9.232-.447-1.944-.2-3.635.445-4.28l.577-.577c.318-.318.835-.317 1.153 0l2.308 2.309c.154.154.239.358.239.576 0 .219-.085.423-.239.577l-.576.577c-.636.637-.636 1.672 0 2.308l3.81 3.761c.638.638 1.67.639 2.309 0l.577-.576c.298-.3.854-.3 1.154 0l2.308 2.307c.313.312.325.829 0 1.154z"/>
</svg>
